REM DIRINDEX 1\2\6,1\2\4\7,1\2\4\8,1\2\5\9,1\3\12,1\3\10\13,1\3\10\14,1\3\10\15,1\3\11\16,1\3\11\17
REM DIRNAME folder01,folder02,folder03,folder04,folder05,folder06,folder07,folder08,folder09,folder10,folder11,folder12,folder13,folder14,folder15,folder16,folder17
TITLE ""
FILE "193.mp3" MP3
  TRACK 01 AUDIO
    TITLE "6:cjc048_04785"
    INDEX 01 00:00:00
  TRACK 02 AUDIO
    TITLE "9:cjc048_04786"
    INDEX 01 00:01:60
  TRACK 03 AUDIO
    TITLE "0:"
    INDEX 01 00:03:14
  TRACK 04 AUDIO
    TITLE "9:cjc048_04787"
    INDEX 01 00:03:59
  TRACK 05 AUDIO
    TITLE "0:"
    INDEX 01 00:05:10
  TRACK 06 AUDIO
    TITLE "9:cjc048_04788"
    INDEX 01 00:05:56
  TRACK 07 AUDIO
    TITLE "0:"
    INDEX 01 00:07:13
  TRACK 08 AUDIO
    TITLE "9:cjc048_04789"
    INDEX 01 00:07:60
  TRACK 09 AUDIO
    TITLE "0:"
    INDEX 01 00:08:68
  TRACK 10 AUDIO
    TITLE "9:cjc048_04790"
    INDEX 01 00:09:40
  TRACK 11 AUDIO
    TITLE "0:"
    INDEX 01 00:10:74
  TRACK 12 AUDIO
    TITLE "9:cjc048_04791"
    INDEX 01 00:11:42
  TRACK 13 AUDIO
    TITLE "0:"
    INDEX 01 00:12:52
  TRACK 14 AUDIO
    TITLE "9:cjc048_04792"
    INDEX 01 00:13:24
  TRACK 15 AUDIO
    TITLE "0:"
    INDEX 01 00:14:21
  TRACK 16 AUDIO
    TITLE "9:cjc048_04793"
    INDEX 01 00:15:03
  TRACK 17 AUDIO
    TITLE "0:"
    INDEX 01 00:16:14
  TRACK 18 AUDIO
    TITLE "9:cjc048_04794"
    INDEX 01 00:16:57
  TRACK 19 AUDIO
    TITLE "0:"
    INDEX 01 00:17:59
  TRACK 20 AUDIO
    TITLE "9:cjc048_04795"
    INDEX 01 00:18:31
  TRACK 21 AUDIO
    TITLE "0:"
    INDEX 01 00:19:30
  TRACK 22 AUDIO
    TITLE "9:cjc048_04796"
    INDEX 01 00:20:12
  TRACK 23 AUDIO
    TITLE "0:"
    INDEX 01 00:21:31
  TRACK 24 AUDIO
    TITLE "9:cjc048_04797"
    INDEX 01 00:22:03
  TRACK 25 AUDIO
    TITLE "0:"
    INDEX 01 00:23:38
  TRACK 26 AUDIO
    TITLE "9:cjc048_04798"
    INDEX 01 00:24:08
  TRACK 27 AUDIO
    TITLE "0:"
    INDEX 01 00:25:17
  TRACK 28 AUDIO
    TITLE "9:cjc048_04799"
    INDEX 01 00:25:62
  TRACK 29 AUDIO
    TITLE "0:"
    INDEX 01 00:27:02
  TRACK 30 AUDIO
    TITLE "9:cjc048_04800"
    INDEX 01 00:27:47
  TRACK 31 AUDIO
    TITLE "0:"
    INDEX 01 00:28:53
  TRACK 32 AUDIO
    TITLE "9:cjc048_04801"
    INDEX 01 00:29:25
  TRACK 33 AUDIO
    TITLE "0:"
    INDEX 01 00:30:32
  TRACK 34 AUDIO
    TITLE "9:cjc048_04802"
    INDEX 01 00:31:02
  TRACK 35 AUDIO
    TITLE "0:"
    INDEX 01 00:32:19
  TRACK 36 AUDIO
    TITLE "9:cjc048_04803"
    INDEX 01 00:32:62
  TRACK 37 AUDIO
    TITLE "0:"
    INDEX 01 00:34:14
  TRACK 38 AUDIO
    TITLE "9:cjc048_04804"
    INDEX 01 00:34:57
  TRACK 39 AUDIO
    TITLE "0:"
    INDEX 01 00:35:74
  TRACK 40 AUDIO
    TITLE "9:cjc048_04805"
    INDEX 01 00:36:42
  TRACK 41 AUDIO
    TITLE "0:"
    INDEX 01 00:37:61
  TRACK 42 AUDIO
    TITLE "9:cjc048_04806"
    INDEX 01 00:38:30
  TRACK 43 AUDIO
    TITLE "0:"
    INDEX 01 00:39:31
  TRACK 44 AUDIO
    TITLE "9:cjc048_04807"
    INDEX 01 00:40:03
  TRACK 45 AUDIO
    TITLE "0:"
    INDEX 01 00:41:28
  TRACK 46 AUDIO
    TITLE "9:cjc048_04808"
    INDEX 01 00:42:02
  TRACK 47 AUDIO
    TITLE "0:"
    INDEX 01 00:43:35
  TRACK 48 AUDIO
    TITLE "9:cjc048_04809"
    INDEX 01 00:44:05
  TRACK 49 AUDIO
    TITLE "0:"
    INDEX 01 00:45:20
  TRACK 50 AUDIO
    TITLE "9:cjc048_04810"
    INDEX 01 00:45:63
  TRACK 51 AUDIO
    TITLE "0:"
    INDEX 01 00:47:13
  TRACK 52 AUDIO
    TITLE "9:cjc048_04811"
    INDEX 01 00:47:60
  TRACK 53 AUDIO
    TITLE "0:"
    INDEX 01 00:48:67
  TRACK 54 AUDIO
    TITLE "9:cjc048_04812"
    INDEX 01 00:49:43
  TRACK 55 AUDIO
    TITLE "0:"
    INDEX 01 00:50:64
  TRACK 56 AUDIO
    TITLE "9:cjc048_04813"
    INDEX 01 00:51:38
  TRACK 57 AUDIO
    TITLE "0:"
    INDEX 01 00:52:51
  TRACK 58 AUDIO
    TITLE "9:cjc048_04814"
    INDEX 01 00:53:17
  TRACK 59 AUDIO
    TITLE "0:"
    INDEX 01 00:54:40
  TRACK 60 AUDIO
    TITLE "9:cjc048_04815"
    INDEX 01 00:55:10
  TRACK 61 AUDIO
    TITLE "0:"
    INDEX 01 00:56:24
  TRACK 62 AUDIO
    TITLE "9:cjc048_04816"
    INDEX 01 00:56:69
  TRACK 63 AUDIO
    TITLE "0:"
    INDEX 01 00:58:05
  TRACK 64 AUDIO
    TITLE "9:cjc048_04817"
    INDEX 01 00:58:50
  TRACK 65 AUDIO
    TITLE "0:"
    INDEX 01 00:59:73
  TRACK 66 AUDIO
    TITLE "9:cjc048_04818"
    INDEX 01 01:00:45
  TRACK 67 AUDIO
    TITLE "0:"
    INDEX 01 01:01:68
  TRACK 68 AUDIO
    TITLE "9:cjc048_04819"
    INDEX 01 01:02:38
  TRACK 69 AUDIO
    TITLE "0:"
    INDEX 01 01:03:59
  TRACK 70 AUDIO
    TITLE "9:cjc048_04820"
    INDEX 01 01:04:31
  TRACK 71 AUDIO
    TITLE "0:"
    INDEX 01 01:05:40
  TRACK 72 AUDIO
    TITLE "9:cjc048_04821"
    INDEX 01 01:06:10
  TRACK 73 AUDIO
    TITLE "0:"
    INDEX 01 01:07:29
  TRACK 74 AUDIO
    TITLE "9:cjc048_04822"
    INDEX 01 01:07:74
  TRACK 75 AUDIO
    TITLE "0:"
    INDEX 01 01:09:26
  TRACK 76 AUDIO
    TITLE "9:cjc048_04823"
    INDEX 01 01:09:71
  TRACK 77 AUDIO
    TITLE "0:"
    INDEX 01 01:11:13
  TRACK 78 AUDIO
    TITLE "9:cjc048_04824"
    INDEX 01 01:11:60
  TRACK 79 AUDIO
    TITLE "0:"
    INDEX 01 01:13:02
  TRACK 80 AUDIO
    TITLE "9:cjc048_04825"
    INDEX 01 01:13:45
  TRACK 81 AUDIO
    TITLE "0:"
    INDEX 01 01:14:59
  TRACK 82 AUDIO
    TITLE "9:cjc048_04826"
    INDEX 01 01:15:27
  TRACK 83 AUDIO
    TITLE "0:"
    INDEX 01 01:16:44
  TRACK 84 AUDIO
    TITLE "9:cjc048_04827"
    INDEX 01 01:17:16
  TRACK 85 AUDIO
    TITLE "0:"
    INDEX 01 01:18:37
  TRACK 86 AUDIO
    TITLE "9:cjc048_04828"
    INDEX 01 01:19:07
  TRACK 87 AUDIO
    TITLE "0:"
    INDEX 01 01:20:20
  TRACK 88 AUDIO
    TITLE "9:cjc048_04829"
    INDEX 01 01:20:63
  TRACK 89 AUDIO
    TITLE "0:"
    INDEX 01 01:22:07
  TRACK 90 AUDIO
    TITLE "9:cjc048_04830"
    INDEX 01 01:22:48
  TRACK 91 AUDIO
    TITLE "0:"
    INDEX 01 01:23:62
  TRACK 92 AUDIO
    TITLE "9:cjc048_04831"
    INDEX 01 01:24:30
  TRACK 93 AUDIO
    TITLE "0:"
    INDEX 01 01:25:41
  TRACK 94 AUDIO
    TITLE "9:cjc048_04832"
    INDEX 01 01:26:13
  TRACK 95 AUDIO
    TITLE "0:"
    INDEX 01 01:27:34
  TRACK 96 AUDIO
    TITLE "9:cjc048_04833"
    INDEX 01 01:28:06
  TRACK 97 AUDIO
    TITLE "0:"
    INDEX 01 01:29:15
  TRACK 98 AUDIO
    TITLE "9:cjc048_04834"
    INDEX 01 01:29:60
  TRACK 99 AUDIO
    TITLE "0:"
    INDEX 01 01:30:56
